<?xml version="1.0" encoding="UTF-8"?>
<svg width="1024" height="1024" viewBox="0 0 1024 1024" xmlns="http://www.w3.org/2000/svg">
  <path id="16" d="M 0,512 C 0,512 0,0 0,0 C 0,0 512,0 512,0 C 512,0 1024,0 1024,0 C 1024,0 1024,512 1024,512 C 1024,512 1024,1024 1024,1024 C 1024,1024 512,1024 512,1024 C 512,1024 0,1024 0,1024 C 0,1024 0,512 0,512M 508.532,587.897 C 509.413,587.015 510.748,584.540 511.497,582.397 C 512.514,579.487 513.319,578.597 514.679,578.881 C 515.680,579.090 522.505,579.361 529.844,579.483 C 529.844,579.483 543.188,579.704 543.188,579.704 C 543.188,579.704 544.990,583.729 544.990,583.729 C 545.981,585.943 547.232,588.025 547.770,588.358 C 549.910,589.681 562.659,590.183 566.647,589.102 C 571.273,587.848 571.268,587.857 574.568,576 C 576.169,570.246 577.672,566.922 579.217,565.710 C 586.535,559.972 591.594,555.182 595.133,550.639 C 598.767,545.975 599.939,545.223 607.818,542.500 C 615.858,539.722 616.589,539.241 617.694,536 C 618.350,534.075 618.913,527.538 618.944,521.473 C 619.014,507.751 618.485,506.826 609.273,504.564 C 609.273,504.564 602.500,502.901 602.500,502.901 C 602.500,502.901 599.098,496.700 599.098,496.700 C 597.217,493.270 592.636,487.517 588.848,483.825 C 585.081,480.154 582,476.302 582,475.264 C 582,474.226 582.924,469.852 584.052,465.544 C 585.180,461.236 585.845,457.040 585.530,456.219 C 584.230,452.831 568.224,457.541 560.173,463.682 C 556.871,466.201 556.514,466.257 550.621,465.175 C 547.254,464.557 541.125,463.777 537,463.442 C 526.924,462.623 526.334,462.407 528.243,460.229 C 535.348,452.123 535.138,438.632 527.789,431.078 C 513.835,416.735 491.104,425.877 491.022,445.865 C 490.995,452.506 494.804,460.098 499.673,463.107 C 503.320,465.361 503.981,467 501.243,467 C 500.277,467 494.989,469.206 489.493,471.903 C 473.775,479.615 462.027,491.634 457.388,504.750 C 455.523,510.023 454.059,510.993 451,508.985 C 450.005,508.332 449.856,507.748 450.558,507.250 C 454.522,504.440 456.326,496.347 453.970,491.945 C 452.502,489.203 447.463,486.845 444.603,487.563 C 440.248,488.656 437.509,492.626 437.524,497.825 C 437.531,500.396 437.754,503.175 438.019,504 C 438.331,504.973 437.973,505.356 437,505.090 C 436.175,504.864 434.375,504.639 433,504.590 C 430.976,504.517 430.500,504.976 430.500,507 C 430.500,508.963 431.252,509.757 434,510.694 C 435.925,511.350 438.981,511.913 440.790,511.944 C 442.599,511.975 445.844,512.900 448,514 C 450.156,515.100 452.613,516 453.460,516 C 454.692,516 455.004,517.348 455.021,522.750 C 455.060,535.338 461.933,549.390 472.647,558.788 C 477.759,563.272 478.212,564.052 480.049,571.532 C 483.800,586.806 483.903,587.049 487.312,588.585 C 491.749,590.584 506.318,590.112 508.532,587.897M 228.941,554.425 C 236.484,552.185 243.300,545.216 245.564,537.428 C 249.430,524.131 244.427,510.816 233.287,504.753 C 214.716,494.646 193.042,507.093 193.010,527.884 C 192.996,536.806 194.691,541.527 199.954,547.230 C 207.302,555.193 217.680,557.769 228.941,554.425M 393.384,552.682 C 399.629,549.823 402.250,546.211 400.025,543.530 C 398.272,541.417 396.730,541.596 390.796,544.603 C 386.411,546.825 384.664,547.150 378.862,546.822 C 371.319,546.396 368.101,544.668 364.215,538.958 C 359.913,532.636 360.203,532.531 382.749,532.229 C 382.749,532.229 402.972,531.959 402.972,531.959 C 402.972,531.959 403.598,529.467 403.598,529.467 C 405.528,521.778 399.622,509.497 391.621,504.562 C 387.331,501.916 385.821,501.549 379.121,501.526 C 372.412,501.503 370.845,501.871 366.027,504.604 C 350.231,513.563 347.586,535.714 360.800,548.378 C 369.004,556.241 381.892,557.943 393.384,552.682M 757.500,554.911 C 759.700,554.318 763.192,552.496 765.260,550.861 C 768.647,548.184 769.076,548.069 769.582,549.695 C 770.693,553.263 771.740,554.506 773.907,554.827 C 778.798,555.553 779,554.515 779,528.578 C 779,503.190 778.799,502 774.500,502 C 771.598,502 770,503.874 770,507.278 C 770,507.278 770,510.156 770,510.156 C 770,510.156 765.870,506.620 765.870,506.620 C 754.339,496.750 736.913,500.994 729.510,515.475 C 726.900,520.581 726.514,522.370 726.604,528.932 C 726.721,537.444 728.338,542.038 733.146,547.514 C 739.360,554.592 748.445,557.351 757.500,554.911M 126.429,553.429 C 127.713,552.145 128,549.210 128,537.407 C 128,537.407 128,522.958 128,522.958 C 128,522.958 147.750,523.229 147.750,523.229 C 147.750,523.229 167.500,523.500 167.500,523.500 C 167.500,523.500 167.779,537.932 167.779,537.932 C 168.069,552.966 168.622,555 172.422,555 C 176.928,555 177,554.434 177,518.779 C 177,518.779 177,484.957 177,484.957 C 177,484.957 174.422,483.783 174.422,483.783 C 172.590,482.948 171.360,482.914 170.172,483.662 C 168.755,484.554 168.457,486.952 168.223,499.357 C 168.223,499.357 167.947,514 167.947,514 C 167.947,514 147.973,514 147.973,514 C 147.973,514 128,514 128,514 C 128,514 128,500.723 128,500.723 C 128,490.324 127.662,486.964 126.443,485.223 C 124.749,482.805 121.109,482.291 119.200,484.200 C 117.481,485.919 117.481,552.081 119.200,553.800 C 120.883,555.483 124.564,555.294 126.429,553.429M 269.443,552.777 C 270.688,550.999 271,547.477 271,535.179 C 271,517.859 272.005,514.084 277.349,511.320 C 281.013,509.425 286.737,509.253 289.896,510.944 C 294.080,513.183 295,517.594 295,535.396 C 295,549.027 295.270,552.128 296.571,553.429 C 298.743,555.601 302.712,555.406 303.965,553.066 C 304.552,551.970 305,544.368 305,535.516 C 305,518.587 305.615,516.021 310.615,512.088 C 313.982,509.439 321.543,509.269 324.633,511.772 C 328.541,514.938 329,517.296 329,534.212 C 329,552.068 329.779,555 334.522,555 C 338.689,555 339.216,552.275 338.844,532.641 C 338.509,514.968 338.429,514.380 335.764,509.846 C 329.722,499.568 314.827,497.973 306.127,506.673 C 306.127,506.673 302.660,510.140 302.660,510.140 C 302.660,510.140 300.348,507.186 300.348,507.186 C 297.611,503.689 291.434,500.991 286.230,501.022 C 282.012,501.047 275.207,503.828 273.082,506.396 C 271.777,507.973 271.563,507.865 270.381,505.054 C 269.376,502.664 268.477,502 266.248,502 C 264.681,502 262.860,502.540 262.200,503.200 C 260.646,504.754 260.496,550.190 262.035,553.066 C 263.439,555.690 267.514,555.531 269.443,552.777M 702,552.995 C 710.769,549.736 715,543.778 715,534.688 C 715,528.307 712.438,523.802 706.678,520.057 C 706.678,520.057 702.920,517.613 702.920,517.613 C 702.920,517.613 705.844,515.325 705.844,515.325 C 709.120,512.761 712,506.503 712,501.948 C 712,498.425 709.653,492.394 707.212,489.645 C 703.005,484.908 698.669,484.045 678.950,484.022 C 665.830,484.006 660.049,484.351 659.200,485.200 C 658.316,486.084 658,495.009 658,519.143 C 658,519.143 658,551.887 658,551.887 C 658,551.887 660.250,553.514 660.250,553.514 C 662.186,554.914 665.014,555.082 680.500,554.718 C 691.795,554.453 699.804,553.811 702,552.995M 804.965,553.066 C 805.552,551.970 806,544.368 806,535.516 C 806,518.080 806.729,515.356 812.299,511.960 C 817.232,508.952 825.957,509.251 829.894,512.564 C 834.143,516.139 834.988,520.281 834.994,537.550 C 835,553.340 835.429,555 839.500,555 C 843.640,555 844,553.442 843.994,535.550 C 843.991,526.172 843.492,516.711 842.885,514.523 C 840.823,507.097 832.297,501.024 823.909,501.006 C 819.330,500.996 811.811,503.806 806,506.887 C 806,503.628 804.260,502 800.775,502 C 796.314,502 795.864,504.780 796.199,530.237 C 796.449,549.222 796.753,553.236 798,554.023 C 800.480,555.589 803.864,555.124 804.965,553.066M 869.965,553.066 C 870.534,552.002 871,548.219 871,544.659 C 871,544.659 871,538.186 871,538.186 C 871,538.186 875.921,534.066 875.921,534.066 C 875.921,534.066 880.842,529.946 880.842,529.946 C 880.842,529.946 885.238,535.723 885.238,535.723 C 887.656,538.900 891.781,544.537 894.405,548.250 C 898.408,553.914 899.639,555 902.053,555 C 905.137,555 907.594,551.991 906.609,549.423 C 906.309,548.642 901.985,542.601 896.999,535.998 C 896.999,535.998 887.934,523.994 887.934,523.994 C 887.934,523.994 894.666,517.747 894.666,517.747 C 904.855,508.293 905,508.131 905,506.200 C 905,505.210 904.460,503.860 903.800,503.200 C 902.369,501.769 898.360,501.609 897.531,502.950 C 896.286,504.964 873.021,526 872.038,526 C 871.353,526 871,518.690 871,504.500 C 871,484.333 870.876,482.876 863,481 C 861.077,482.923 861,484.334 861,517.429 C 861,547.394 861.203,552.061 862.571,553.429 C 864.743,555.601 868.712,555.406 869.965,553.066" stroke="#FEFEFE00" fill="#FEFEFE00" stroke-width="1" />
  <path id="19" d="M 487.312,588.585 C 483.903,587.049 483.800,586.806 480.049,571.532 C 478.212,564.052 477.759,563.272 472.647,558.788 C 461.933,549.390 455.060,535.338 455.021,522.750 C 455.004,517.348 454.692,516 453.460,516 C 452.613,516 450.156,515.100 448,514 C 445.844,512.900 442.599,511.975 440.790,511.944 C 438.981,511.913 435.925,511.350 434,510.694 C 431.252,509.757 430.500,508.963 430.500,507 C 430.500,504.976 430.976,504.517 433,504.590 C 434.375,504.639 436.175,504.864 437,505.090 C 437.973,505.356 438.331,504.973 438.019,504 C 437.754,503.175 437.531,500.396 437.524,497.825 C 437.509,492.626 440.248,488.656 444.603,487.563 C 447.463,486.845 452.502,489.203 453.970,491.945 C 456.326,496.347 454.522,504.440 450.558,507.250 C 449.856,507.748 450.005,508.332 451,508.985 C 454.059,510.993 455.523,510.023 457.388,504.750 C 462.027,491.634 473.775,479.615 489.493,471.903 C 494.989,469.206 500.277,467 501.243,467 C 503.981,467 503.320,465.361 499.673,463.107 C 494.804,460.098 490.995,452.506 491.022,445.865 C 491.104,425.877 513.835,416.735 527.789,431.078 C 535.138,438.632 535.348,452.123 528.243,460.229 C 526.334,462.407 526.924,462.623 537,463.442 C 541.125,463.777 547.254,464.557 550.621,465.175 C 556.514,466.257 556.871,466.201 560.173,463.682 C 568.224,457.541 584.230,452.831 585.530,456.219 C 585.845,457.040 585.180,461.236 584.052,465.544 C 582.924,469.852 582,474.226 582,475.264 C 582,476.302 585.081,480.154 588.848,483.825 C 592.636,487.517 597.217,493.270 599.098,496.700 C 599.098,496.700 602.500,502.901 602.500,502.901 C 602.500,502.901 609.273,504.564 609.273,504.564 C 618.485,506.826 619.014,507.751 618.944,521.473 C 618.913,527.538 618.350,534.075 617.694,536 C 616.589,539.241 615.858,539.722 607.818,542.500 C 599.939,545.223 598.767,545.975 595.133,550.639 C 591.594,555.182 586.535,559.972 579.217,565.710 C 577.672,566.922 576.169,570.246 574.568,576 C 571.268,587.857 571.273,587.848 566.647,589.102 C 562.659,590.183 549.910,589.681 547.770,588.358 C 547.232,588.025 545.981,585.943 544.990,583.729 C 544.990,583.729 543.188,579.704 543.188,579.704 C 543.188,579.704 529.844,579.483 529.844,579.483 C 522.505,579.361 515.680,579.090 514.679,578.881 C 513.319,578.597 512.514,579.487 511.497,582.397 C 509.298,588.688 507.945,589.468 498.715,589.761 C 493.216,589.936 489.446,589.546 487.312,588.585M 506.550,577.750 C 506.550,577.750 508.586,572.500 508.586,572.500 C 508.586,572.500 513.543,572.725 513.543,572.725 C 521.370,573.081 541.247,573.130 544,572.800 C 546.141,572.543 546.859,573.258 549,577.778 C 549,577.778 551.500,583.057 551.500,583.057 C 551.500,583.057 558.909,582.778 558.909,582.778 C 558.909,582.778 566.317,582.500 566.317,582.500 C 566.317,582.500 568.924,572.615 568.924,572.615 C 568.924,572.615 571.531,562.729 571.531,562.729 C 571.531,562.729 577.016,558.960 577.016,558.960 C 583.050,554.813 588.364,549.604 592.724,543.561 C 595.153,540.194 596.724,539.249 603.533,537.061 C 603.533,537.061 611.500,534.500 611.500,534.500 C 611.500,534.500 611.783,523.231 611.783,523.231 C 611.996,514.733 611.751,511.867 610.783,511.576 C 596.763,507.357 597.755,507.985 594.086,501 C 591.906,496.849 587.847,491.708 582.856,486.774 C 574.241,478.258 574.722,479.857 577.094,467.604 C 577.615,464.911 577.871,462.538 577.662,462.329 C 576.891,461.558 567.521,466.181 562.737,469.693 C 562.737,469.693 557.799,473.318 557.799,473.318 C 557.799,473.318 550.149,471.438 550.149,471.438 C 539.602,468.846 518.299,468.803 508.500,471.355 C 489.113,476.404 472.311,488.522 465.451,502.402 C 456.863,519.779 460.879,538.086 476.667,553.521 C 476.667,553.521 483.849,560.542 483.849,560.542 C 483.849,560.542 486.495,570.981 486.495,570.981 C 487.950,576.722 489.361,581.775 489.630,582.210 C 489.899,582.645 493.357,583 497.316,583 C 497.316,583 504.514,583 504.514,583 C 504.514,583 506.550,577.750 506.550,577.750M 449,497.967 C 449,496.470 448.277,494.644 447.392,493.910 C 446.026,492.776 445.575,492.862 444.392,494.479 C 442.731,496.751 442.666,497.992 444.025,501.567 C 445.019,504.181 445.111,504.209 447.025,502.477 C 448.111,501.494 449,499.464 449,497.967M 519.759,459.005 C 530.538,452.433 529.225,435.925 517.570,431.474 C 509.794,428.504 501.562,432.018 498.364,439.671 C 492.689,453.254 507.395,466.543 519.759,459.005" stroke="#020202" fill="#020202" stroke-width="1" />
  <path id="18" d="M 119.200,553.800 C 117.481,552.081 117.481,485.919 119.200,484.200 C 121.109,482.291 124.749,482.805 126.443,485.223 C 127.662,486.964 128,490.324 128,500.723 C 128,500.723 128,514 128,514 C 128,514 147.973,514 147.973,514 C 147.973,514 167.947,514 167.947,514 C 167.947,514 168.223,499.357 168.223,499.357 C 168.457,486.952 168.755,484.554 170.172,483.662 C 171.360,482.914 172.590,482.948 174.422,483.783 C 174.422,483.783 177,484.957 177,484.957 C 177,484.957 177,518.779 177,518.779 C 177,554.434 176.928,555 172.422,555 C 168.622,555 168.069,552.966 167.779,537.932 C 167.779,537.932 167.500,523.500 167.500,523.500 C 167.500,523.500 147.750,523.229 147.750,523.229 C 147.750,523.229 128,522.958 128,522.958 C 128,522.958 128,537.407 128,537.407 C 128,549.210 127.713,552.145 126.429,553.429 C 124.564,555.294 120.883,555.483 119.200,553.800" stroke="#000000" fill="#000000" stroke-width="1" />
  <path id="18" d="M 210,554.046 C 203.402,551.780 196.048,544.442 194.204,538.286 C 189.490,522.553 197.236,506.603 211.622,502.421 C 228.738,497.445 245.142,508.455 246.732,525.984 C 248.241,542.624 236.033,556.099 219.568,555.967 C 217.330,555.949 213.025,555.085 210,554.046M 228,545.461 C 234.104,542.357 237,536.866 237,528.395 C 237,515.572 227.583,507.979 214.680,510.400 C 208.221,511.612 202.244,519.962 202.082,528 C 201.788,542.600 215.483,551.826 228,545.461" stroke="#000000" fill="#000000" stroke-width="1" />
  <path id="19" d="M 370.173,554.156 C 348.580,546.450 346.028,515.948 366.027,504.604 C 370.845,501.871 372.412,501.503 379.121,501.526 C 385.821,501.549 387.331,501.916 391.621,504.562 C 399.622,509.497 405.528,521.778 403.598,529.467 C 403.598,529.467 402.972,531.959 402.972,531.959 C 402.972,531.959 382.749,532.229 382.749,532.229 C 360.203,532.531 359.913,532.636 364.215,538.958 C 368.101,544.668 371.319,546.396 378.862,546.822 C 384.664,547.150 386.411,546.825 390.796,544.603 C 396.730,541.596 398.272,541.417 400.025,543.530 C 403.699,547.957 393.181,554.892 381.639,555.653 C 377.291,555.940 373.946,555.503 370.173,554.156M 395,523.816 C 395,523.165 394.068,520.706 392.929,518.353 C 389.573,511.420 382.219,508.071 374.713,510.058 C 370.156,511.264 365.655,514.905 363.411,519.200 C 360.394,524.976 360.455,525 378.500,525 C 390.545,525 395,524.681 395,523.816" stroke="#020202" fill="#020202" stroke-width="1" />
  <path id="18" d="M 745.500,555.065 C 740.663,553.887 736.517,551.354 733.146,547.514 C 728.338,542.038 726.721,537.444 726.604,528.932 C 726.514,522.370 726.900,520.581 729.510,515.475 C 736.913,500.994 754.339,496.750 765.870,506.620 C 765.870,506.620 770,510.156 770,510.156 C 770,510.156 770,507.278 770,507.278 C 770,503.874 771.598,502 774.500,502 C 778.799,502 779,503.190 779,528.578 C 779,554.515 778.798,555.553 773.907,554.827 C 771.740,554.506 770.693,553.263 769.582,549.695 C 769.076,548.069 768.647,548.184 765.260,550.861 C 759.565,555.362 752.711,556.820 745.500,555.065M 762.010,544.750 C 767.393,541.086 769.323,537.677 769.808,530.979 C 770.676,518.975 764.904,511.072 754.648,510.221 C 747.949,509.665 743.112,511.676 739.382,516.566 C 736.756,520.009 736.500,521.061 736.500,528.422 C 736.500,535.336 736.844,536.982 738.889,539.849 C 742.512,544.929 746.614,546.992 753.102,546.996 C 757.270,546.999 759.550,546.424 762.010,544.750" stroke="#000000" fill="#000000" stroke-width="1" />
  <path id="18" d="M 798,554.023 C 796.753,553.236 796.449,549.222 796.199,530.237 C 795.864,504.780 796.314,502 800.775,502 C 804.260,502 806,503.628 808.864,506.630 C 811.811,503.806 819.330,500.996 823.909,501.006 C 832.297,501.024 840.823,507.097 842.885,514.523 C 843.492,516.711 843.991,526.172 843.994,535.550 C 844,553.442 843.640,555 839.500,555 C 835.429,555 835,553.340 834.994,537.550 C 834.988,520.281 834.143,516.139 829.894,512.564 C 825.957,509.251 817.232,508.952 812.299,511.960 C 806.729,515.356 806,518.080 806,535.516 C 806,544.368 805.552,551.970 804.965,553.066 C 803.864,555.124 800.480,555.589 798,554.023" stroke="#000000" fill="#000000" stroke-width="1" />
  <path id="18" d="M 660.250,553.514 C 660.250,553.514 658,551.887 658,551.887 C 658,551.887 658,519.143 658,519.143 C 658,495.009 658.316,486.084 659.200,485.200 C 660.049,484.351 665.830,484.006 678.950,484.022 C 698.669,484.045 703.005,484.908 707.212,489.645 C 709.653,492.394 712,498.425 712,501.948 C 712,506.503 709.120,512.761 705.844,515.325 C 705.844,515.325 702.920,517.613 702.920,517.613 C 702.920,517.613 706.678,520.057 706.678,520.057 C 714.856,525.375 717.473,535.232 713.023,543.956 C 708.734,552.364 703.230,554.184 680.500,554.718 C 665.014,555.082 662.186,554.914 660.250,553.514M 700.681,543.409 C 702.232,542.259 704.129,539.542 704.897,537.370 C 706.139,533.857 706.103,533.020 704.569,529.788 C 701.828,524.011 698.482,523 682.099,523 C 682.099,523 668,523 668,523 C 668,523 668,534.572 668,534.572 C 668,534.572 668,546.144 668,546.144 C 668,546.144 682.931,545.822 682.931,545.822 C 696.216,545.535 698.172,545.269 700.681,543.409M 695.989,512.506 C 699.955,510.455 702,507.221 702,503 C 702,494.597 696.813,492 680.032,492 C 680.032,492 668,492 668,492 C 668,492 668,503 668,503 C 668,503 668,514 668,514 C 668,514 680.550,514 680.550,514 C 689.728,514 693.876,513.599 695.989,512.506" stroke="#000000" fill="#000000" stroke-width="1" />
  <path id="16" d="M 503.999,458.750 C 495.285,452.802 494.745,440.599 502.893,433.743 C 507.238,430.087 512.008,429.350 517.570,431.474 C 529.225,435.925 530.538,452.433 519.759,459.005 C 515.234,461.764 508.250,461.651 503.999,458.750" stroke="#FEFEFE00" fill="#FEFEFE00" stroke-width="1" />
  <path id="16" d="M 362,523.450 C 362,518.607 368.573,511.683 374.713,510.058 C 382.219,508.071 389.573,511.420 392.929,518.353 C 394.068,520.706 395,523.165 395,523.816 C 395,524.681 390.545,525 378.500,525 C 364.265,525 362,524.787 362,523.450" stroke="#FEFEFE00" fill="#FEFEFE00" stroke-width="1" />
  <path id="16" d="M 744.389,545.095 C 742.678,544.051 740.203,541.691 738.889,539.849 C 736.844,536.982 736.500,535.336 736.500,528.422 C 736.500,521.061 736.756,520.009 739.382,516.566 C 743.112,511.676 747.949,509.665 754.648,510.221 C 764.904,511.072 770.676,518.975 769.808,530.979 C 769.323,537.677 767.393,541.086 762.010,544.750 C 757.694,547.688 748.922,547.859 744.389,545.095" stroke="#FEFEFE00" fill="#FEFEFE00" stroke-width="1" />
  <path id="16" d="M 444.025,501.567 C 442.666,497.992 442.731,496.751 444.392,494.479 C 445.575,492.862 446.026,492.776 447.392,493.910 C 449.606,495.747 449.409,500.319 447.025,502.477 C 445.111,504.209 445.019,504.181 444.025,501.567" stroke="#FEFEFE00" fill="#FEFEFE00" stroke-width="1" />
  <path id="16" d="M 668,534.572 C 668,534.572 668,523 668,523 C 668,523 682.099,523 682.099,523 C 698.482,523 701.828,524.011 704.569,529.788 C 706.103,533.020 706.139,533.857 704.897,537.370 C 702.361,544.540 699.984,545.454 682.931,545.822 C 682.931,545.822 668,546.144 668,546.144 C 668,546.144 668,534.572 668,534.572" stroke="#FEFEFE00" fill="#FEFEFE00" stroke-width="1" />
  <path id="16" d="M 214.664,546.774 C 204.928,544.201 199.478,531.880 203.350,521.193 C 208.392,507.277 228.330,505.924 235.023,519.044 C 237.227,523.365 237.677,532.083 235.933,536.685 C 232.904,544.679 223.542,549.120 214.664,546.774" stroke="#FEFEFE00" fill="#FEFEFE00" stroke-width="1" />
  <path id="19" d="M 576.200,507.800 C 572.806,504.406 576.797,498.751 581,501 C 584.530,502.889 583.002,509 579,509 C 578.120,509 576.860,508.460 576.200,507.800" stroke="#020202" fill="#020202" stroke-width="1" />
  <path id="16" d="M 489.630,582.210 C 489.361,581.775 487.950,576.722 486.495,570.981 C 486.495,570.981 483.849,560.542 483.849,560.542 C 483.849,560.542 476.667,553.521 476.667,553.521 C 460.879,538.086 456.863,519.779 465.451,502.402 C 472.311,488.522 489.113,476.404 508.500,471.355 C 518.299,468.803 539.602,468.846 550.149,471.438 C 550.149,471.438 557.799,473.318 557.799,473.318 C 557.799,473.318 562.737,469.693 562.737,469.693 C 567.521,466.181 576.891,461.558 577.662,462.329 C 577.871,462.538 577.615,464.911 577.094,467.604 C 574.722,479.857 574.241,478.258 582.856,486.774 C 587.847,491.708 591.906,496.849 594.086,501 C 597.755,507.985 596.763,507.357 610.783,511.576 C 611.751,511.867 611.996,514.733 611.783,523.231 C 611.783,523.231 611.500,534.500 611.500,534.500 C 611.500,534.500 603.533,537.061 603.533,537.061 C 596.724,539.249 595.153,540.194 592.724,543.561 C 588.364,549.604 583.050,554.813 577.016,558.960 C 577.016,558.960 571.531,562.729 571.531,562.729 C 571.531,562.729 568.924,572.615 568.924,572.615 C 568.924,572.615 566.317,582.500 566.317,582.500 C 566.317,582.500 558.909,582.778 558.909,582.778 C 558.909,582.778 551.500,583.057 551.500,583.057 C 551.500,583.057 549,577.778 549,577.778 C 546.859,573.258 546.141,572.543 544,572.800 C 541.247,573.130 521.370,573.081 513.543,572.725 C 513.543,572.725 508.586,572.500 508.586,572.500 C 508.586,572.500 506.550,577.750 506.550,577.750 C 506.550,577.750 504.514,583 504.514,583 C 504.514,583 497.316,583 497.316,583 C 493.357,583 489.899,582.645 489.630,582.210M 581.800,507.800 C 585.194,504.406 581.203,498.751 577,501 C 573.470,502.889 574.998,509 579,509 C 579.880,509 581.140,508.460 581.800,507.800M 510.221,484.006 C 519.729,481.371 531.090,480.516 538.404,481.884 C 544.532,483.031 547,482.322 547,479.413 C 547,477.018 542.944,475.808 533.089,475.265 C 526.121,474.881 521.078,475.208 515.009,476.438 C 501.443,479.187 497.796,481.396 501.200,484.800 C 502.678,486.278 501.714,486.363 510.221,484.006" stroke="#FEFEFE00" fill="#FEFEFE00" stroke-width="1" />
  <path id="19" d="M 262.035,553.066 C 260.496,550.190 260.646,504.754 262.200,503.200 C 262.860,502.540 264.681,502 266.248,502 C 268.477,502 269.376,502.664 270.381,505.054 C 271.563,507.865 271.777,507.973 273.082,506.396 C 275.207,503.828 282.012,501.047 286.230,501.022 C 291.434,500.991 297.611,503.689 300.348,507.186 C 300.348,507.186 302.660,510.140 302.660,510.140 C 302.660,510.140 306.127,506.673 306.127,506.673 C 314.827,497.973 329.722,499.568 335.764,509.846 C 338.429,514.380 338.509,514.968 338.844,532.641 C 339.216,552.275 338.689,555 334.522,555 C 329.779,555 329,552.068 329,534.212 C 329,517.296 328.541,514.938 324.633,511.772 C 321.543,509.269 313.982,509.439 310.615,512.088 C 305.615,516.021 305,518.587 305,535.516 C 305,544.368 304.552,551.970 303.965,553.066 C 302.712,555.406 298.743,555.601 296.571,553.429 C 295.270,552.128 295,549.027 295,535.396 C 295,517.594 294.080,513.183 289.896,510.944 C 286.737,509.253 281.013,509.425 277.349,511.320 C 272.005,514.084 271,517.859 271,535.179 C 271,547.477 270.688,550.999 269.443,552.777 C 267.514,555.531 263.439,555.690 262.035,553.066" stroke="#020202" fill="#020202" stroke-width="1" />
  <path id="19" d="M 501.200,484.800 C 497.796,481.396 501.443,479.187 515.009,476.438 C 521.078,475.208 526.121,474.881 533.089,475.265 C 542.944,475.808 547,477.018 547,479.413 C 547,482.322 544.532,483.031 538.404,481.884 C 531.090,480.516 519.729,481.371 510.221,484.006 C 501.714,486.363 502.678,486.278 501.200,484.800" stroke="#020202" fill="#020202" stroke-width="1" />
  <path id="18" d="M 862.571,553.429 C 861.203,552.061 861,547.394 861,517.429 C 861,484.334 861.077,482.923 869,481 C 870.876,482.876 871,484.333 871,504.500 C 871,518.690 871.353,526 872.038,526 C 873.021,526 896.286,504.964 897.531,502.950 C 898.360,501.609 902.369,501.769 903.800,503.200 C 904.460,503.860 905,505.210 905,506.200 C 905,508.131 904.855,508.293 894.666,517.747 C 894.666,517.747 887.934,523.994 887.934,523.994 C 887.934,523.994 896.999,535.998 896.999,535.998 C 901.985,542.601 906.309,548.642 906.609,549.423 C 907.594,551.991 905.137,555 902.053,555 C 899.639,555 898.408,553.914 894.405,548.250 C 891.781,544.537 887.656,538.900 885.238,535.723 C 885.238,535.723 880.842,529.946 880.842,529.946 C 880.842,529.946 875.921,534.066 875.921,534.066 C 875.921,534.066 871,538.186 871,538.186 C 871,538.186 871,544.659 871,544.659 C 871,548.219 870.534,552.002 869.965,553.066 C 868.712,555.406 864.743,555.601 862.571,553.429" stroke="#000000" fill="#000000" stroke-width="1" />
  <path id="16" d="M 668,503 C 668,503 668,492 668,492 C 668,492 680.032,492 680.032,492 C 693.103,492 697.573,493.125 700.369,497.117 C 702.434,500.065 702.469,505.885 700.439,508.783 C 697.421,513.091 693.959,514 680.550,514 C 680.550,514 668,514 668,514 C 668,514 668,503 668,503" stroke="#FEFEFE00" fill="#FEFEFE00" stroke-width="1" />
</svg>
